<?xml version="1.0" encoding="utf-8"?>
<!-- Generator: Adobe Illustrator 23.1.0, SVG Export Plug-In . SVG Version: 6.00 Build 0)  -->
<svg version="1.1" id="Capa_1" xmlns="http://www.w3.org/2000/svg" xmlns:xlink="http://www.w3.org/1999/xlink" x="0px" y="0px"
	 viewBox="0 0 70 30" style="enable-background:new 0 0 70 30;" xml:space="preserve">
<style type="text/css">
	.st0{clip-path:url(#SVGID_2_);}
	.st1{clip-path:url(#SVGID_4_);fill:#203683;}
</style>
<g id="SAMSUNG_1_">
	<g>
		<defs>
			<rect id="SVGID_1_" y="9.4" width="70" height="10.72"/>
		</defs>
		<clipPath id="SVGID_2_">
			<use xlink:href="#SVGID_1_"  style="overflow:visible;"/>
		</clipPath>
		<g class="st0">
			<defs>
				<rect id="SVGID_3_" y="9.4" width="70" height="10.72"/>
			</defs>
			<clipPath id="SVGID_4_">
				<use xlink:href="#SVGID_3_"  style="overflow:visible;"/>
			</clipPath>
			<path class="st1" d="M2.66,12.29c-0.05-0.2-0.04-0.41-0.01-0.53c0.07-0.32,0.29-0.67,0.92-0.67c0.59,0,0.93,0.36,0.93,0.91v0.62
				h2.5v-0.7c0-2.18-1.96-2.52-3.38-2.52c-1.78,0-3.23,0.59-3.5,2.22c-0.07,0.45-0.08,0.84,0.02,1.35c0.43,2.05,3.99,2.64,4.51,3.93
				c0.1,0.24,0.07,0.55,0.02,0.74c-0.08,0.34-0.31,0.68-0.98,0.68c-0.63,0-1-0.36-1-0.91l0-0.96H0v0.76c0,2.24,1.76,2.91,3.64,2.91
				c1.81,0,3.29-0.62,3.54-2.29c0.12-0.86,0.03-1.43-0.01-1.64C6.74,14.09,2.94,13.47,2.66,12.29 M35.2,12.32
				c-0.04-0.2-0.03-0.41-0.01-0.52c0.07-0.32,0.29-0.67,0.91-0.67c0.58,0,0.92,0.36,0.92,0.9v0.61h2.47v-0.7
				c0-2.16-1.93-2.5-3.33-2.5c-1.76,0-3.2,0.58-3.47,2.2c-0.07,0.44-0.09,0.83,0.03,1.33c0.43,2.02,3.95,2.61,4.46,3.89
				c0.09,0.24,0.06,0.55,0.02,0.73c-0.08,0.33-0.3,0.67-0.96,0.67c-0.62,0-1-0.36-1-0.9l0-0.96h-2.66v0.76
				c0,2.21,1.73,2.88,3.6,2.88c1.79,0,3.26-0.61,3.5-2.27c0.11-0.86,0.03-1.41-0.02-1.62C39.24,14.1,35.49,13.48,35.2,12.32
				 M57.93,17.77l-2.36-8.06h-3.71v9.9h2.46l-0.14-8.31l2.53,8.31h3.56v-9.9h-2.47L57.93,17.77z M10.71,9.71L8.86,19.72h2.7
				l1.4-9.26l1.36,9.26h2.68L15.16,9.71H10.71z M25.83,9.71l-1.26,7.82l-1.26-7.82h-4.08l-0.22,10.01h2.5l0.07-9.26l1.72,9.26h2.54
				l1.72-9.26l0.07,9.26h2.51L29.91,9.71H25.83z M49.08,9.71h-2.53v7.4c0,0.13,0,0.27-0.02,0.38c-0.05,0.25-0.26,0.73-0.96,0.73
				c-0.69,0-0.91-0.48-0.95-0.73c-0.03-0.11-0.03-0.25-0.03-0.38v-7.4h-2.53v7.17c0,0.19,0.01,0.56,0.02,0.66
				c0.17,1.87,1.65,2.48,3.49,2.48c1.84,0,3.32-0.61,3.49-2.48c0.01-0.1,0.03-0.48,0.02-0.66V9.71z M66.46,14.11v1.46h1.03v1.45
				c0,0.13,0,0.27-0.03,0.38c-0.04,0.27-0.3,0.73-1.03,0.73c-0.72,0-0.98-0.46-1.02-0.73c-0.02-0.11-0.03-0.25-0.03-0.38v-4.57
				c0-0.16,0.01-0.34,0.05-0.47c0.05-0.24,0.27-0.72,0.99-0.72c0.77,0,0.96,0.51,1,0.72c0.03,0.14,0.03,0.39,0.03,0.39v0.56h2.52
				v-0.33c0,0,0.01-0.34-0.02-0.66c-0.19-1.88-1.74-2.47-3.51-2.47c-1.78,0-3.29,0.6-3.51,2.47c-0.02,0.17-0.05,0.48-0.05,0.66v4.21
				c0,0.18,0.01,0.32,0.04,0.66c0.16,1.83,1.75,2.47,3.52,2.47c1.78,0,3.35-0.65,3.52-2.47c0.03-0.34,0.03-0.48,0.04-0.66v-2.68
				H66.46z"/>
		</g>
	</g>
</g>
</svg>
