<?xml version="1.0" encoding="utf-8"?>
<!-- Generator: Adobe Illustrator 25.0.0, SVG Export Plug-In . SVG Version: 6.00 Build 0)  -->
<svg version="1.1" id="Capa_1" xmlns="http://www.w3.org/2000/svg" xmlns:xlink="http://www.w3.org/1999/xlink" x="0px" y="0px"
	 viewBox="0 0 250 59.93" style="enable-background:new 0 0 250 59.93;" xml:space="preserve">
<style type="text/css">
	.st0{clip-path:url(#SVGID_2_);}
	.st1{clip-path:url(#SVGID_4_);fill:#86B926;}
</style>
<g id="ACER_1_">
	<g>
		<defs>
			<rect id="SVGID_1_" x="0.14" y="-0.04" width="250.01" height="59.93"/>
		</defs>
		<clipPath id="SVGID_2_">
			<use xlink:href="#SVGID_1_"  style="overflow:visible;"/>
		</clipPath>
		<g class="st0">
			<defs>
				<rect id="SVGID_3_" x="0.14" y="-0.04" width="250.01" height="59.93"/>
			</defs>
			<clipPath id="SVGID_4_">
				<use xlink:href="#SVGID_3_"  style="overflow:visible;"/>
			</clipPath>
			<path class="st1" d="M41.52-0.04h11.74c6.78,0.52,14.24,1.17,19.62,5.78c3.66,3.12,4.34,8.37,3.38,12.84
				c3.6-5.93,8.97-10.77,15.25-13.72c6.85-3.3,14.47-4.57,21.99-4.9h6.69c3.36,0.34,7.16-0.22,10.01,1.93
				c2.01,1.55,1.75,4.32,2.15,6.56c0.09,1.25,0.7,3.09-0.74,3.79c-7.64-0.39-15.37-1.34-22.99-0.19c-5.48,0.84-10.94,3.06-14.74,7.2
				c-4.05,4.28-5.85,10.12-6.89,15.8c-0.45,2.96-0.77,6.35,1.08,8.94c2.16,2.65,5.78,3.38,9.01,3.88c9.01,1.12,18.1-0.09,27.11-0.56
				c-2.11-6.28-0.84-13.05,1.19-19.17c2.59-7.93,7.44-15.27,14.38-20.04c8.05-5.67,18.04-7.73,27.75-8.14h7.74
				c5.59,0.37,11.28,0.81,16.53,2.9c2.87,1.15,5.69,2.98,7.03,5.87c0.84,1.76,0.88,3.76,0.75,5.69c3.45-5.99,9.47-10.1,15.97-12.12
				c4.46-1.48,9.15-2,13.81-2.34h8.02c3.28,0.18,6.66-0.09,9.87,0.81c1.34,0.35,2.28,1.42,2.9,2.59v1.21
				c-0.75,2.19-1.46,4.41-2.42,6.52c-0.51,1.19-1.91,1.44-3.05,1.34c-4.68-0.2-9.37-0.1-14.04-0.21c-3.93,0-8.09,0.12-11.58,2.12
				c-2.02,1.14-3.48,3.1-4.1,5.32c-3.64,12.61-7.23,25.21-10.86,37.81c-0.28,1.35-1.56,2.3-2.94,2.21c-4.17,0.06-8.33,0-12.5,0.03
				c-0.97,0.02-2.34-0.09-2.55-1.3c0.11-1.37,0.6-2.66,0.96-3.96c3.08-10.64,6.1-21.3,9.19-31.91c-2.18,2.87-5.02,5.2-8.22,6.85
				c-5.55,2.91-11.73,4.29-17.88,5.17c-10.19,1.31-20.39,2.6-30.56,3.92c0.08,2.26,0.45,4.68,2.12,6.37
				c2.43,2.58,6.16,2.93,9.47,3.24c10.68,0.77,21.35-0.43,32.02-0.69c0.6-0.11,1.41,0.31,1.2,1.01c-0.56,2.36-1.39,4.66-2.04,7
				c-0.65,2.23-3.1,3.2-5.19,3.51c-4.81,0.71-9.69,0.71-14.55,0.85c-8.62,0.06-17.46,0.6-25.82-1.92c-4.35-1.3-8.5-3.71-11.1-7.51
				c-0.46,2.01-0.52,4.18-1.66,5.98c-1.52,2.07-4.28,2.4-6.62,2.82c-6.22,0.74-12.5,0.76-18.75,0.79
				c-7.85-0.01-16.4-0.66-22.91-5.54c-4.42-3.3-6.27-8.96-6.16-14.32c-1.42,4.56-2.81,9.13-4.32,13.68
				c-0.94,2.56-3.82,3.48-6.25,3.95c-8.7,1.58-17.56,2.01-26.39,2.15c-6.93,0.09-13.92-0.06-20.67-1.74
				c-3.57-0.96-7.24-2.39-9.68-5.27c-1.25-1.43-1.91-3.26-2.16-5.13v-2.32c0.31-2.84,1.22-5.66,2.89-7.99
				c2.27-3.27,5.69-5.58,9.25-7.25c5.76-2.68,12.05-4,18.33-4.88c8.71-1.07,17.39-2.46,26.05-3.89c3.86-0.28,4.58-6.07,1.74-8.12
				c-3.2-2.37-7.41-2.53-11.22-2.73c-9.74-0.06-19.41,0.95-29.08,1.79c-0.72,0.01-1.42-0.02-2.14-0.11
				c0.31-2.43,1.18-4.73,1.96-7.02c0.94-2.55,3.7-3.79,6.22-4.14C29.88,0.19,35.72,0.15,41.52-0.04 M149.36,15.18
				c-3.96,3.56-5.84,8.73-7.31,13.7c8.19-1.17,16.39-2.3,24.6-3.5c4.3-0.7,8.74-1.59,12.52-3.88c2.07-1.27,3.86-3.51,3.58-6.06
				c-0.3-2.26-2.62-3.41-4.57-3.97c-4.75-1.26-9.72-1.09-14.58-0.86C158.64,11.04,153.27,11.8,149.36,15.18 M26.39,35.29
				c-3.95,0.56-8.3,2.84-9.08,7.1c-0.58,2.32,1.3,4.3,3.31,5.04c4.27,1.7,8.97,1.75,13.51,1.78c5.46,0.01,10.95-0.1,16.38-0.86
				c1.79-5.67,3.58-11.35,5.35-17.03C46.03,32.63,36.2,33.93,26.39,35.29"/>
		</g>
	</g>
</g>
</svg>
