<svg id="Capa_1" data-name="Capa 1" xmlns="http://www.w3.org/2000/svg" xmlns:xlink="http://www.w3.org/1999/xlink" viewBox="0 0 70 30"><defs><style>.cls-1{fill:none;}.cls-2{clip-path:url(#clip-path);}.cls-3{clip-path:url(#clip-path-2);}.cls-4{fill:#002f87;}</style><clipPath id="clip-path"><rect class="cls-1" y="8.15" width="70" height="13.71"/></clipPath><clipPath id="clip-path-2"><rect class="cls-1" y="8.15" width="70" height="13.71"/></clipPath></defs><g id="asus"><g class="cls-2"><g class="cls-3"><path class="cls-4" d="M67,9.88a1.43,1.43,0,0,1,1.43-1.42,1.38,1.38,0,0,1,1,.42,1.41,1.41,0,0,1,.41,1,1.42,1.42,0,0,1-1.4,1.42A1.43,1.43,0,0,1,67,9.88m-.12,0A1.54,1.54,0,0,0,69.55,11,1.52,1.52,0,0,0,70,9.88a1.54,1.54,0,1,0-3.08,0m1,.91h.21v-.72h.49a.44.44,0,0,1,.19,0,.26.26,0,0,1,.12.23l0,.27v.13s0,0,0,.06h.27v0s0-.05-.07-.1a.53.53,0,0,1,0-.14v-.23a.36.36,0,0,0-.05-.21.4.4,0,0,0-.15-.1.65.65,0,0,0,.17-.16.43.43,0,0,0,.06-.24.42.42,0,0,0-.22-.4.91.91,0,0,0-.31-.05h-.73Zm.21-.91V9.31h.52a.5.5,0,0,1,.19,0,.29.29,0,0,1,.12.25.24.24,0,0,1-.1.23.37.37,0,0,1-.23.06ZM6.34,12,0,21.82H4.33l6.1-9.38Zm26.08-.21V8.15H20.09a4,4,0,0,0-3,1.46,5.26,5.26,0,0,0-.91,1.88V8.17H9.68a1.58,1.58,0,0,0-1.32.69c-.37.48-1.87,2.93-1.87,2.93Zm33.5,0V8.15H52.74a4,4,0,0,0-3,1.46,5.17,5.17,0,0,0-.92,1.88v.3ZM36.75,8.16H33.06v3.63h3.69Zm12.09,0H45.16v3.63h3.68Zm0,4.93-3.62-.21v4.2A1.19,1.19,0,0,1,44,18.29H37.8a1.16,1.16,0,0,1-1-1.2V12.31L33.1,12v6.45a4,4,0,0,0,3.41,3.32l.33,0h8.4s3.6-.29,3.6-3.7ZM12.48,21.82H29.71A4,4,0,0,0,33,18.53a5.46,5.46,0,0,0,.06-1.45C33,16.54,32,14.16,29.7,14c-1.34-.13-13.3-1.06-13.3-1.06A3.83,3.83,0,0,0,17.53,15a4.67,4.67,0,0,0,2.15,1l9.22.76c.28,0,.82.09.81.78a.72.72,0,0,1-.76.7H16.06v-5.4l-3.58-.26Zm36.38,0H62.05a4,4,0,0,0,3.77-3.29,5.59,5.59,0,0,0,0-1.48,4.09,4.09,0,0,0-3.41-3.15c-1.33-.13-13.35-.83-13.35-.83A3.48,3.48,0,0,0,50.27,15a4.35,4.35,0,0,0,2.08,1l9.31.76c.29,0,.87,0,.87.74a.77.77,0,0,1-.25.55,1.48,1.48,0,0,1-.61.17H48.87Z"/></g></g></g></svg>