<svg id="Capa_1" data-name="Capa 1" xmlns="http://www.w3.org/2000/svg" xmlns:xlink="http://www.w3.org/1999/xlink" viewBox="0 0 70 8.73"><defs><style>.cls-1{fill:none;}.cls-2{clip-path:url(#clip-path);}.cls-3,.cls-5{fill:#222220;}.cls-4{clip-path:url(#clip-path-2);}.cls-5{fill-rule:evenodd;}</style><clipPath id="clip-path" transform="translate(0 -11.29)"><rect class="cls-1" y="11.29" width="70" height="8.73"/></clipPath><clipPath id="clip-path-2" transform="translate(0 -11.29)"><rect class="cls-1" y="11.29" width="70" height="8.73"/></clipPath></defs><title>bose</title><g id="BOSE"><g class="cls-2"><polygon class="cls-3" points="53.03 0 48.24 8.73 60.01 8.73 60.77 7.36 54.15 7.36 55.37 5.14 61.99 5.14 62.79 3.7 56.13 3.7 57.37 1.46 70 1.46 70 0 53.03 0"/><g class="cls-4"><path class="cls-5" d="M41.45,11.29a2.78,2.78,0,0,0-2.38,1.32L37.73,15c-.74,1.44.7,1.44.7,1.44H43.3c.2,0,.08.2.08.2l-.84,1.52a.72.72,0,0,1-.6.34h-.45c-.46,0-.3-.38-.3-.38l.28-.48H36.29l-.68,1.22C35,20,36.49,20,36.49,20h8.83A2.57,2.57,0,0,0,47.4,18.7l1.34-2.42C49.46,15,48,15,48,15H42.9l.86-1.51a1.06,1.06,0,0,1,.86-.64H45c.44,0,.26.32.26.32l-.38.68h5.22l.72-1.36c.68-1.18-.76-1.18-.76-1.18Z" transform="translate(0 -11.29)"/><path class="cls-5" d="M32,12.83c.6,0,.4.36.4.36l-2.71,5a1,1,0,0,1-.88.5h-.68c-.74,0-.54-.44-.54-.44l2.71-4.87a.84.84,0,0,1,.66-.5Zm-3.89-1.54a3.05,3.05,0,0,0-2.44,1.54l-3.14,5.75c-.8,1.44.64,1.44.64,1.44h8.87a2.88,2.88,0,0,0,2.28-1.44l3.16-5.75c.86-1.54-.64-1.54-.64-1.54Z" transform="translate(0 -11.29)"/><path class="cls-5" d="M18.72,20a2.57,2.57,0,0,0,2.16-1.18L22,16.92a1.11,1.11,0,0,0-.28-1.29,2.59,2.59,0,0,0,1.5-1l1.22-2.23c.4-1.16-1.14-1.16-1.14-1.16h-10l-4,7.35H0V20Zm-4.27-1.38,1.16-2.18H18c.62,0,.29.64.29.64l-.58,1.08a.93.93,0,0,1-.76.46ZM20,12.83c.56.08.34.62.34.62l-.54,1a1.31,1.31,0,0,1-.94.47H16.47l1.14-2.13Z" transform="translate(0 -11.29)"/></g></g></g></svg>